PathFileType	4	(X/Y/Z)	3_coords_data.trc
DataRate	CameraRate	NumFrames	NumMarkers	Units	OrigDataRate	OrigDataStartFrame	OrigNumFrames
30.0	30.0	4	21	m	30.0	1	49
Frame#	Time	THUMB_TIP	THUMB_IP	THUMB_MCP	THUMB_CMC	INDEX_TIP	INDEX_DIP	INDEX_PIP	INDEX_MCP	MIDDLE_TIP	MIDDLE_DIP	MIDDLE_PIP	MIDDLE_MCP	RING_TIP	RING_DIP	RING_PIP	RING_MCP	PINKY_TIP	PINKY_DIP	PINKY_PIP	PINKY_MCP	WRIST
X1	Y1	Z1	X2	Y2	Z2	X3	Y3	Z3	X4	Y4	Z4	X5	Y5	Z5	X6	Y6	Z6	X7	Y7	Z7	X8	Y8	Z8	X9	Y9	Z9	X10	Y10	Z10	X11	Y11	Z11	X12	Y12	Z12	X13	Y13	Z13	X14	Y14	Z14	X15	Y15	Z15	X16	Y16	Z16	X17	Y17	Z17	X18	Y18	Z18	X19	Y19	Z19	X20	Y20	Z20	X21	Y21	Z21
0	-2.749317978547796e-18	0.49435511873616467	-0.015851487014349464	-0.17020920076279983	0.4906908254162722	-0.020779293855355152	-0.14806671503505175	0.47739969534740645	-0.02624035284745241	-0.12045616096278938	0.4752762769022719	-0.031193353196281248	-0.07617468761725399	0.5694802742305457	0.028321787887015115	-0.17183025648070416	0.5572683127324449	0.020920157847038823	-0.16069096255693022	0.5405507962491507	0.010802801664399064	-0.1448740861426573	0.5133273443923672	-0.007391605053557515	-0.1176438946783474	0.5865004110670535	0.04467623674037979	-0.1502911999025715	0.5740023731795909	0.035675452563012744	-0.14076308712217234	0.5534162614477296	0.022323831906736036	-0.12503553869229256	0.5241390359393403	-0.000333555127037366	-0.10002284590777388	0.6037016235110456	0.03638801786024504	-0.10703454767229992	0.587872377160385	0.029756966783498595	-0.10151511639836625	0.5654848742194523	0.021209148059209593	-0.0947390935142231	0.5299088296056258	0.004953427321186088	-0.08450105527819307	0.6028916109838715	0.01731329175268137	-0.06414942426063042	0.5861468778142044	0.01387702776362254	-0.06325164874628997	0.5653884950897964	0.010787942379984816	-0.06385091259434922	0.5320295230620886	-0.002818058937655188	-0.06556531173078256	0.4622830810018608	-0.023011742144276925	-0.05198982011943093
1	0.03333333333333339	0.49351181225993257	-0.015118759870981213	-0.1707065537323722	0.4900280990352237	-0.019904369012984757	-0.14850381319639416	0.4768416917255274	-0.02571142285947481	-0.12091365575054491	0.47462303048356247	-0.03077661537320564	-0.076649546507364	0.5691745137049682	0.029141622527480315	-0.17211867634588396	0.5569985727461998	0.02159664365054792	-0.16103626886757716	0.540146787053046	0.011655691587892814	-0.1452500526002125	0.5126153581541233	-0.0056623527551464825	-0.1177592931178682	0.5872437123672314	0.04434738127075455	-0.1504128872358873	0.5746571398460673	0.03555057182295207	-0.14081109908427064	0.5538765127816959	0.022564126900244563	-0.1250336678269015	0.5232006714886651	0.0014590674675116766	-0.10034121658556866	0.6034545268843687	0.037244330183067276	-0.10685335884833319	0.5875992063829825	0.030683330723203284	-0.10132505912002732	0.5652509147802344	0.022191315125016486	-0.09435228976211135	0.5296815521050842	0.005906633033674669	-0.08413708530661645	0.6028100580962521	0.018148665223356564	-0.06392836634703769	0.5860284878745871	0.014883747255613367	-0.06308030293005246	0.5653116221583617	0.011485575498491163	-0.06335584349871987	0.5317495188070607	-0.0016030645715230385	-0.06513240499616668	0.4622830810018609	-0.023011742144276925	-0.05198982011943093
2	0.06666666666666676	0.49289383832093725	-0.014484928196147107	-0.17104814054078998	0.48953826824488145	-0.019171547803782385	-0.14880458538164315	0.47642385292910217	-0.02526502191154756	-0.12124189893377946	0.4741197634945201	-0.030446362775258695	-0.07699560102388098	0.5689261820981076	0.029784679955378812	-0.17228655969677942	0.5567593847780925	0.022149615883831575	-0.16125592782018022	0.5397928051373663	0.0123506038808332	-0.1455039637502622	0.512013484813153	-0.004277619280616762	-0.11783723913715033	0.5875792935216156	0.04428594372500483	-0.15049019535550218	0.5749082207289816	0.035670810787413076	-0.14083496885627456	0.553960727548859	0.02299373660861026	-0.12502662075364684	0.5223849602757017	0.0029557285262851174	-0.100580822051128	0.6032414573597853	0.03788165415115596	-0.1067642224198817	0.5873546539496443	0.0314149816883772	-0.1012152022661365	0.5650273348169448	0.023003943910690272	-0.0940790098045422	0.5294686887907344	0.0066988603468106644	-0.08385904029589997	0.6026833676177045	0.018897463285536542	-0.06385220373923767	0.5858760952956369	0.015763447153269272	-0.06301941326465721	0.5651981513669796	0.0121255008364487	-0.06301872099760919	0.531496070370256	-0.0005989519510943841	-0.06479114553701198	0.4622830810018609	-0.023011742144276925	-0.051989820119430985
3	0.10000000000000014	0.4924733306500828	-0.013940199171926237	-0.17126785853870197	0.4891981982190108	-0.018567202946187078	-0.1489998468710224	0.4761271471260512	-0.024895289783455232	-0.12146944657779674	0.4737496304385138	-0.030193228046741294	-0.07724084424221656	0.5687425999570346	0.030285957791101215	-0.1723600184234766	0.5565612153182561	0.0226075161603293	-0.16137569311852673	0.5394956833802371	0.012921700192817909	-0.14566065504297765	0.5115221654490655	-0.0032036979303048385	-0.11789214907082968	0.5877105402062474	0.04434736070982126	-0.1505326854247866	0.5749590796040066	0.035891835856061594	-0.140842259636569	0.5538705666188514	0.023469176415489068	-0.12501943743259736	0.5217152798398733	0.0041488267359225395	-0.10075197894554205	0.6030628916611663	0.03832707144687497	-0.10675480929988612	0.5871407092755213	0.031975110863565304	-0.10117478198576496	0.5648181350591297	0.023666046143714592	-0.09390552460725471	0.5292733430042371	0.007348382059618186	-0.0836574793978973	0.602536503036162	0.019555838610279763	-0.06390293652281626	0.585712745116375	0.016515687172870108	-0.06305520502403783	0.5650680582211043	0.012700565444880851	-0.06282332532061347	0.5312769745227153	0.00020611784623014717	-0.06453647817224295	0.4622830810018608	-0.023011742144276925	-0.051989820119430985
